<svg width="17" height="17" viewBox="0 0 17 17" fill="none" xmlns="http://www.w3.org/2000/svg">
<path fill-rule="evenodd" clip-rule="evenodd" d="M2.30505 5.1053C2.43632 4.97407 2.61433 4.90035 2.79995 4.90035C2.98556 4.90035 3.16358 4.97407 3.29485 5.1053L8.39995 10.2104L13.505 5.1053C13.5696 5.03845 13.6469 4.98512 13.7323 4.94843C13.8177 4.91175 13.9095 4.89244 14.0025 4.89163C14.0954 4.89082 14.1876 4.90853 14.2736 4.94373C14.3596 4.97892 14.4378 5.0309 14.5035 5.09663C14.5692 5.16235 14.6212 5.24051 14.6564 5.32654C14.6916 5.41256 14.7093 5.50474 14.7085 5.59768C14.7077 5.69063 14.6884 5.78248 14.6517 5.86789C14.615 5.95329 14.5617 6.03053 14.4948 6.0951L8.89485 11.6951C8.76358 11.8263 8.58556 11.9001 8.39995 11.9001C8.21433 11.9001 8.03632 11.8263 7.90505 11.6951L2.30505 6.0951C2.17382 5.96383 2.1001 5.78582 2.1001 5.6002C2.1001 5.41459 2.17382 5.23657 2.30505 5.1053Z" fill="black"/>
</svg>
