<svg width="24" height="24" viewBox="0 0 24 24" fill="none" xmlns="http://www.w3.org/2000/svg">
<path d="M16.9632 6.25275C17.1154 6.04772 17.3402 5.90856 17.5915 5.86372C17.8429 5.81887 18.1019 5.87172 18.3156 6.01147C18.5293 6.15121 18.6816 6.3673 18.7413 6.61556C18.801 6.86383 18.7636 7.12552 18.6368 7.34715L11.8368 17.7471C11.7574 17.8681 11.6527 17.9704 11.53 18.047C11.4073 18.1237 11.2694 18.1728 11.1258 18.1911C10.9823 18.2093 10.8365 18.1962 10.6985 18.1527C10.5605 18.1093 10.4336 18.0364 10.3264 17.9391L5.92641 13.9391L5.79201 13.7887C5.65865 13.6025 5.59315 13.3762 5.60642 13.1475C5.61969 12.9189 5.71094 12.7017 5.86495 12.5321C6.01897 12.3626 6.22644 12.2509 6.45278 12.2158C6.67912 12.1807 6.91066 12.2242 7.10881 12.3391L7.27361 12.4591L10.8048 15.6687L16.9632 6.25275Z" fill="#19592A"/>
</svg>
