<svg width="268" height="132" viewBox="0 0 268 132" fill="none" xmlns="http://www.w3.org/2000/svg">
<g clip-path="url(#clip0_183_918)">
<path d="M74.5801 33.2326C102.27 32.7679 137.307 32.1101 164.877 31.8928C174.79 31.7841 184.679 31.7721 194.586 31.7479L193.175 33.6431C192.931 32.8947 192.615 32.0376 192.27 31.2953C185.381 16.5144 172.278 17.5042 159.954 24.7589L159.013 25.29L158.251 24.5235C148.618 15.2349 134.336 11.4748 121.946 17.0878C117.731 18.9226 113.802 21.5178 110.26 24.5657L109.748 24.3303C96.8582 18.5604 79.9204 16.6895 74.5801 33.2326ZM74.5801 33.2326C77.92 20.6065 88.5233 17.4861 100.162 19.6227C103.723 20.2745 107.14 21.2824 110.492 22.7128L109.545 22.8456C123.959 9.69436 141.873 8.14325 157.525 20.1659C158.465 20.9022 159.341 21.6265 160.258 22.5197L158.555 22.2843C161.746 20.4073 165.128 18.7657 168.771 17.7336C174.296 16.104 180.565 16.1282 185.637 19.158C191.305 22.4533 194.937 28.4345 196.556 34.7174C157.251 34.7355 114.01 33.9267 74.586 33.2266H74.5801V33.2326Z" fill="white"/>
<path d="M110.837 22.7432C110.837 25.2902 108.688 27.0224 106.235 26.4068C106.223 23.8477 108.39 22.1397 110.837 22.7432Z" fill="white"/>
<path d="M159.251 22.7432C159.055 25.3626 156.751 27.0586 154.232 26.4068C154.417 23.7813 156.739 22.1035 159.251 22.7432Z" fill="white"/>
<path d="M75.1516 65.8965C115.07 74.4065 156.685 74.8169 196.586 65.8965C186.888 69.2763 176.838 71.6905 166.658 73.2235C136.926 77.6113 103.723 75.5653 75.1516 65.8965Z" fill="white"/>
<path d="M91.5417 40.3607C94.5303 40.4512 97.0785 41.1694 98.3227 42.1592L95.5127 46.0944L94.9769 45.9736L94.0302 42.0084C93.6433 41.8273 92.6371 41.6764 92.0179 41.6764C88.7018 41.6764 86.8384 42.8775 86.8384 44.3803C86.8384 45.6115 87.785 46.541 89.1483 47.3799C93.1194 49.6613 98.9776 51.9125 97.8524 57.1634C97.4952 58.8473 96.2509 60.676 93.5004 61.515C91.0416 62.2332 88.1422 62.2634 85.3559 61.8167C82.9269 61.4848 80.3192 60.2535 78.813 58.8473L81.5695 55.0329L82.016 55.1536L82.9328 59.3241C83.6413 59.8975 84.9451 60.3441 85.9215 60.4346C90.2438 60.7364 91.3392 58.962 91.4583 57.4953C91.6072 55.9925 91.1606 55.0027 90.1545 54.4052C88.1422 53.2343 85.2369 51.6711 84.2605 51.0133C82.3673 49.8424 81.0039 48.074 81.0932 46.1185C81.2718 41.9782 85.5643 40.1736 91.5476 40.3546L91.5417 40.3607Z" fill="white"/>
<path d="M103.032 59.2396C102.734 59.813 102.913 60.3501 103.83 60.3501H104.598V61.7323H98.8228V60.3501H99.6503C100.567 60.3501 100.895 60.1691 101.365 59.1189L108.295 40.7168H111.403C112.29 40.7168 112.974 41.5557 113.296 42.5757L117.529 57.3445C118.005 58.9982 119.184 59.2034 120.904 58.0325L121.381 58.7206C119.279 61.2434 116.761 62.1728 115.135 62.1728C113.302 62.1728 112.498 60.5795 112.177 59.469L110.754 54.0672H104.86L103.026 59.2275L103.032 59.2396ZM108.301 44.8632L105.401 52.7274H110.319L108.307 44.8632H108.301Z" fill="white"/>
<path d="M139.724 61.7321H137.682C136.556 61.7321 135.253 60.9837 134.068 58.7325L125.923 44.8026L124.917 59.0946C124.887 59.8732 124.947 60.5371 125.894 60.5371H126.87V61.7381H121.214V60.5371H122.131C122.959 60.5371 123.197 60.1448 123.286 59.0946L124.411 43.0342C124.471 42.4609 124.054 42.1048 123.554 42.1048H122.577V40.7227H129.918L138.39 55.4914L139.277 43.2455C139.337 42.4669 139.009 42.0746 138.39 42.0746H137.116V40.7227H143.218V42.0746H142.063C141.325 42.0746 141.117 42.4669 141.057 43.2455L139.724 61.7381V61.7321Z" fill="white"/>
<path d="M146.683 42.8775C146.743 42.28 146.445 42.0386 145.945 42.0386H144.612V40.7168H155.477C161.841 40.7168 164.3 44.5614 164.3 48.9129C164.3 52.667 164.062 57.1393 161.401 59.813C159.686 61.5271 155.155 62.2755 152.845 61.8832C152.048 61.7624 151.214 61.34 150.387 60.8028C149.821 61.521 149.023 61.7323 148.225 61.7323H145.266L146.689 42.8775H146.683ZM152.488 42.0084L151.274 58.5516C151.214 58.9439 151.125 59.2698 151.035 59.5716C151.482 59.8733 152.042 60.1389 152.81 60.4407C155.001 60.9537 156.394 59.6621 157.31 57.3203C158.227 55.0088 158.317 51.7074 158.317 48.1947C158.317 43.4509 156.453 42.0084 154.084 42.0084H152.482H152.488Z" fill="white"/>
<path d="M169.426 42.8473C169.486 42.28 169.247 42.0989 168.837 42.0989H167.622V40.7168H177.332V42.0989H176.148C175.85 42.0989 175.671 42.28 175.612 42.8473L174.338 59.5655C174.278 60.1329 174.397 60.3441 174.927 60.3441H176.082V61.7262H166.372V60.3441H167.557C167.914 60.3441 168.092 60.163 168.146 59.5957L169.42 42.8473H169.426Z" fill="white"/>
<path d="M181.244 42.787C181.303 42.1894 180.946 42.0386 180.654 42.0386H179.172V40.7168H196.586V42.1593H187.346L186.727 49.9933H194.931V51.4056H186.608L185.929 60.2596H196.026V61.7323H181.696C180.571 61.7323 179.862 60.8632 179.952 59.9639L181.256 42.793L181.244 42.787Z" fill="white"/>
<path d="M100.341 88.4212C100.079 88.2401 99.8827 88.0289 99.7517 87.7995C99.9303 87.4857 100.02 87.3348 100.192 87.0209C100.317 87.2322 100.484 87.4193 100.698 87.5762C100.913 87.7331 101.133 87.8357 101.371 87.884C101.651 87.9383 101.871 87.9202 102.032 87.8176C102.193 87.7211 102.294 87.5641 102.336 87.3589C102.365 87.202 102.347 87.0692 102.288 86.9546C102.228 86.8459 102.145 86.7493 102.038 86.6709C101.931 86.5924 101.776 86.4959 101.573 86.3751C101.3 86.2182 101.079 86.0734 100.913 85.9346C100.746 85.7957 100.621 85.6026 100.532 85.3612C100.442 85.1198 100.436 84.818 100.508 84.4498C100.573 84.142 100.686 83.8704 100.853 83.6411C101.02 83.4117 101.24 83.2488 101.502 83.1462C101.764 83.0436 102.068 83.0255 102.401 83.0919C102.645 83.1401 102.865 83.2307 103.08 83.3635C103.294 83.4962 103.467 83.6532 103.61 83.8463C103.449 84.1662 103.371 84.3291 103.211 84.649C103.068 84.4679 102.913 84.3231 102.746 84.2145C102.58 84.1058 102.407 84.0334 102.234 83.9972C101.966 83.9429 101.752 83.973 101.597 84.0756C101.443 84.1843 101.341 84.3412 101.3 84.5524C101.27 84.7033 101.282 84.8361 101.341 84.9508C101.401 85.0655 101.484 85.162 101.591 85.2405C101.699 85.3189 101.847 85.4155 102.044 85.5241C102.324 85.6811 102.544 85.832 102.705 85.9647C102.865 86.0975 102.996 86.2846 103.086 86.526C103.181 86.7675 103.193 87.0632 103.127 87.4253C103.074 87.7331 102.961 87.9987 102.794 88.228C102.627 88.4574 102.407 88.6264 102.133 88.729C101.859 88.8316 101.544 88.8497 101.192 88.7773C100.889 88.7169 100.603 88.5962 100.341 88.4151V88.4212Z" fill="white"/>
<path d="M105.824 88.2583C105.586 88.7351 105.467 88.9765 105.229 89.4533C104.902 89.399 104.741 89.3688 104.413 89.3085C105.509 87.2142 106.051 86.17 107.098 84.0576C107.402 84.1059 107.557 84.1361 107.86 84.1844C108.2 86.5201 108.378 87.691 108.759 90.0267C108.426 89.9784 108.259 89.9482 107.926 89.8999C107.849 89.3688 107.813 89.1033 107.741 88.5782C106.973 88.4575 106.592 88.3911 105.824 88.2583ZM107.307 85.2285C106.878 86.1157 106.658 86.5623 106.223 87.4435C106.783 87.5401 107.063 87.5884 107.622 87.6789C107.491 86.7011 107.426 86.2123 107.307 85.2285Z" fill="white"/>
<path d="M114.248 90.7751C113.987 90.7449 113.856 90.7268 113.588 90.6966C112.915 89.1214 112.581 88.3307 111.944 86.7434C111.748 88.216 111.653 88.9524 111.462 90.419C111.147 90.3767 110.986 90.3526 110.67 90.3103C110.974 88.0772 111.129 86.9607 111.432 84.7275C111.688 84.7638 111.813 84.7819 112.069 84.8181C112.695 86.3994 113.022 87.184 113.683 88.7592C113.862 87.2866 113.945 86.5563 114.123 85.0836C114.427 85.1198 114.582 85.1379 114.891 85.1742C114.635 87.4133 114.504 88.5299 114.248 90.769V90.7751Z" fill="white"/>
<path d="M120.047 86.0551C120.351 86.3146 120.571 86.6647 120.72 87.1052C120.869 87.5458 120.917 88.0407 120.875 88.602C120.833 89.1573 120.702 89.6401 120.488 90.0505C120.274 90.461 119.988 90.7688 119.637 90.974C119.285 91.1792 118.898 91.2637 118.464 91.2214C117.755 91.155 117.404 91.1188 116.701 91.0464C116.928 88.8072 117.041 87.6846 117.267 85.4395C117.952 85.5119 118.291 85.5421 118.976 85.6084C119.392 85.6447 119.75 85.7955 120.053 86.0551H120.047ZM119.267 90.1169C119.494 89.9781 119.678 89.7729 119.815 89.5013C119.952 89.2297 120.035 88.9038 120.071 88.5296C120.101 88.1494 120.071 87.8114 119.982 87.5217C119.893 87.2259 119.75 86.9966 119.553 86.8276C119.357 86.6586 119.125 86.556 118.845 86.5319C118.487 86.4957 118.303 86.4836 117.946 86.4474C117.803 87.9442 117.731 88.6986 117.588 90.1954C117.958 90.2316 118.142 90.2497 118.511 90.2859C118.791 90.3101 119.047 90.2557 119.273 90.123L119.267 90.1169Z" fill="white"/>
<path d="M127.329 91.8011C126.983 91.789 126.811 91.783 126.465 91.7649C126.156 90.1293 126.007 89.3084 125.715 87.6668C125.257 89.2662 125.025 90.0689 124.542 91.6683C124.197 91.6502 124.024 91.6381 123.679 91.62C123.28 89.3386 123.096 88.1979 122.732 85.9165C123.054 85.9406 123.215 85.9467 123.542 85.9708C123.81 87.6607 123.953 88.4997 124.239 90.1896C124.733 88.548 124.971 87.7271 125.447 86.0795C125.733 86.0915 125.882 86.1036 126.168 86.1157C126.471 87.8116 126.626 88.6626 126.948 90.3526C127.406 88.6868 127.632 87.8599 128.073 86.1941C128.37 86.2062 128.519 86.2122 128.817 86.2183C128.239 88.4574 127.936 89.574 127.323 91.8011H127.329Z" fill="white"/>
<path d="M131.645 86.2787C131.615 88.5299 131.603 89.6585 131.573 91.9097C131.252 91.9097 131.091 91.9037 130.764 91.8977C130.805 89.6465 130.823 88.5178 130.865 86.2666C131.174 86.2666 131.335 86.2726 131.645 86.2787Z" fill="white"/>
<path d="M134.824 91.6378C134.497 91.3904 134.241 91.0464 134.05 90.5997C133.866 90.1591 133.77 89.6582 133.77 89.109C133.77 88.5537 133.86 88.0588 134.044 87.6182C134.223 87.1776 134.473 86.8276 134.794 86.5801C135.11 86.3266 135.467 86.1999 135.86 86.1938C136.181 86.1938 136.479 86.2663 136.747 86.4232C137.015 86.5801 137.247 86.8155 137.438 87.1233C137.241 87.4009 137.146 87.5337 136.949 87.8114C136.664 87.3708 136.318 87.1535 135.919 87.1595C135.663 87.1595 135.431 87.2501 135.229 87.419C135.026 87.588 134.866 87.8174 134.753 88.1131C134.639 88.4089 134.58 88.7408 134.586 89.115C134.586 89.4832 134.645 89.8151 134.765 90.1109C134.884 90.4006 135.05 90.6299 135.259 90.7929C135.467 90.9558 135.705 91.0403 135.973 91.0343C136.39 91.0343 136.735 90.7989 137.003 90.3523C137.211 90.6178 137.319 90.7506 137.533 91.0162C137.354 91.33 137.128 91.5775 136.854 91.7465C136.58 91.9155 136.277 92.006 135.937 92.012C135.533 92.012 135.163 91.8974 134.836 91.6499L134.824 91.6378Z" fill="white"/>
<path d="M143.248 91.6501C142.927 91.6682 142.766 91.6803 142.445 91.6924C142.397 90.7388 142.373 90.268 142.325 89.3144C141.546 89.3567 141.153 89.3748 140.373 89.4049C140.408 90.3585 140.426 90.8353 140.468 91.7829C140.146 91.795 139.986 91.801 139.664 91.8131C139.587 89.5619 139.545 88.4332 139.468 86.182C139.777 86.1699 139.938 86.1639 140.248 86.1518C140.283 87.0692 140.301 87.5279 140.337 88.4453C141.117 88.4151 141.504 88.397 142.278 88.3548C142.23 87.4374 142.206 86.9787 142.159 86.0613C142.468 86.0432 142.629 86.0371 142.939 86.019C143.064 88.2703 143.129 89.3929 143.254 91.6441L143.248 91.6501Z" fill="white"/>
<path d="M149.273 90.9137C148.922 90.6965 148.636 90.3766 148.416 89.9481C148.196 89.5256 148.059 89.0367 148.011 88.4875C147.963 87.9383 148.011 87.4313 148.154 86.9786C148.297 86.5199 148.517 86.1518 148.815 85.8741C149.112 85.5965 149.452 85.4396 149.845 85.3973C150.166 85.3672 150.47 85.4154 150.75 85.5482C151.029 85.681 151.28 85.8922 151.494 86.1819C151.321 86.4716 151.238 86.6165 151.059 86.9062C150.738 86.4958 150.375 86.3087 149.976 86.3449C149.72 86.369 149.499 86.4777 149.309 86.6587C149.118 86.8458 148.981 87.0873 148.892 87.389C148.803 87.6908 148.773 88.0288 148.809 88.403C148.845 88.7712 148.928 89.0971 149.071 89.3747C149.214 89.6523 149.398 89.8696 149.624 90.0145C149.851 90.1593 150.095 90.2197 150.357 90.1955C150.768 90.1533 151.095 89.8937 151.327 89.423C151.559 89.6704 151.678 89.7911 151.911 90.0386C151.762 90.3706 151.559 90.6301 151.297 90.8232C151.035 91.0163 150.738 91.131 150.404 91.1672C150 91.2095 149.624 91.1189 149.273 90.9017V90.9137Z" fill="white"/>
<path d="M154.62 89.3201C154.53 89.8452 154.483 90.1108 154.393 90.6359C154.066 90.6781 153.899 90.6962 153.572 90.7385C154.024 88.4148 154.239 87.25 154.643 84.9263C154.947 84.8841 155.102 84.866 155.405 84.8237C156.394 86.9603 156.9 88.0286 157.936 90.153C157.602 90.2013 157.436 90.2255 157.096 90.2737C156.876 89.7909 156.763 89.5435 156.543 89.0606C155.775 89.1693 155.388 89.2175 154.62 89.3201ZM155.173 85.9886C155.018 86.9663 154.935 87.4492 154.768 88.4269C155.334 88.3545 155.614 88.3183 156.173 88.2398C155.769 87.3405 155.566 86.8879 155.173 85.9886Z" fill="white"/>
<path d="M160.139 86.7253C160.883 86.6046 161.252 86.5382 161.996 86.4115C162.056 86.7676 162.085 86.9486 162.151 87.3047C161.407 87.4375 161.032 87.4979 160.287 87.6246C160.424 88.4696 160.49 88.8921 160.627 89.737C160.311 89.7913 160.15 89.8155 159.835 89.8638C159.49 87.6367 159.317 86.5262 158.972 84.2991C160.103 84.118 160.674 84.0214 161.806 83.8223C161.865 84.1784 161.901 84.3594 161.96 84.7155C161.133 84.8604 160.716 84.9328 159.883 85.0716C159.99 85.7355 160.043 86.0614 160.145 86.7253H160.139Z" fill="white"/>
<path d="M167.896 88.3789C166.699 88.6323 166.104 88.747 164.901 88.9764C164.491 86.7613 164.282 85.6569 163.871 83.4418C165.003 83.2246 165.562 83.1159 166.693 82.8745C166.765 83.2306 166.8 83.4117 166.872 83.7678C166.044 83.9428 165.634 84.0273 164.806 84.1842C164.913 84.7455 164.967 85.0231 165.074 85.5844C165.812 85.4396 166.181 85.3672 166.92 85.2102C166.991 85.5543 167.027 85.7293 167.092 86.0793C166.348 86.2363 165.979 86.3087 165.235 86.4535C165.348 87.039 165.401 87.3347 165.515 87.9262C166.39 87.7572 166.83 87.6667 167.705 87.4796C167.777 87.8417 167.813 88.0167 167.89 88.3789H167.896Z" fill="white"/>
</g>
<path d="M3.3 120.66H10V122.26H3.3V128H1.44V114H10.82V115.6H3.3V120.66ZM14.5803 119.38C14.9003 118.713 15.3736 118.2 16.0003 117.84C16.627 117.48 17.3803 117.3 18.2603 117.3V119.08C18.1536 119.067 18.0136 119.06 17.8403 119.06C16.8536 119.06 16.0736 119.38 15.5003 120.02C14.9403 120.647 14.6603 121.54 14.6603 122.7V128H12.8603V117.42H14.5803V119.38ZM29.3231 122.68C29.3231 122.813 29.3098 122.987 29.2831 123.2H21.1031C21.1831 124.213 21.5565 125.027 22.2231 125.64C22.8898 126.253 23.7365 126.56 24.7631 126.56C25.9765 126.56 26.9498 126.127 27.6831 125.26L28.6631 126.38C28.2098 126.94 27.6431 127.367 26.9631 127.66C26.2965 127.953 25.5498 128.1 24.7231 128.1C23.6698 128.1 22.7298 127.873 21.9031 127.42C21.0765 126.953 20.4365 126.313 19.9831 125.5C19.5298 124.673 19.3031 123.74 19.3031 122.7C19.3031 121.673 19.5231 120.753 19.9631 119.94C20.4031 119.113 21.0031 118.467 21.7631 118C22.5365 117.533 23.3965 117.3 24.3431 117.3C25.2765 117.3 26.1231 117.527 26.8831 117.98C27.6431 118.42 28.2365 119.053 28.6631 119.88C29.1031 120.693 29.3231 121.627 29.3231 122.68ZM24.3631 118.78C23.4698 118.78 22.7231 119.08 22.1231 119.68C21.5231 120.28 21.1831 121.06 21.1031 122.02H27.6231C27.5298 121.06 27.1831 120.28 26.5831 119.68C25.9831 119.08 25.2431 118.78 24.3631 118.78ZM34.3404 128.1C33.5271 128.1 32.7404 127.987 31.9804 127.76C31.2204 127.52 30.6204 127.213 30.1804 126.84L30.8404 125.46C31.2671 125.807 31.8004 126.093 32.4404 126.32C33.0804 126.533 33.7404 126.64 34.4204 126.64C35.2737 126.64 35.9004 126.5 36.3004 126.22C36.7137 125.94 36.9204 125.553 36.9204 125.06C36.9204 124.713 36.8071 124.44 36.5804 124.24C36.3537 124.04 36.0737 123.893 35.7404 123.8C35.4071 123.707 34.9337 123.6 34.3204 123.48C33.4937 123.32 32.8271 123.16 32.3204 123C31.8271 122.827 31.4004 122.54 31.0404 122.14C30.6804 121.727 30.5004 121.153 30.5004 120.42C30.5004 119.5 30.8604 118.753 31.5804 118.18C32.3137 117.593 33.3404 117.3 34.6604 117.3C35.3271 117.3 35.9871 117.393 36.6404 117.58C37.3071 117.753 37.8537 117.993 38.2804 118.3L37.6204 119.68C36.7804 119.08 35.7937 118.78 34.6604 118.78C33.8471 118.78 33.2404 118.927 32.8404 119.22C32.4404 119.513 32.2404 119.893 32.2404 120.36C32.2404 120.72 32.3537 121.007 32.5804 121.22C32.8204 121.433 33.1137 121.593 33.4604 121.7C33.8071 121.807 34.2871 121.913 34.9004 122.02C35.6871 122.167 36.3271 122.333 36.8204 122.52C37.3271 122.693 37.7537 122.98 38.1004 123.38C38.4604 123.767 38.6404 124.313 38.6404 125.02C38.6404 125.953 38.2604 126.7 37.5004 127.26C36.7537 127.82 35.7004 128.1 34.3404 128.1ZM46.0034 117.3C47.2568 117.3 48.2501 117.693 48.9834 118.48C49.7301 119.253 50.1034 120.38 50.1034 121.86V128H48.3034V122.12C48.3034 121.08 48.0634 120.293 47.5834 119.76C47.1168 119.227 46.4434 118.96 45.5634 118.96C44.5768 118.96 43.7968 119.273 43.2234 119.9C42.6501 120.527 42.3634 121.407 42.3634 122.54V128H40.5634V113.16H42.3634V119.22C42.7234 118.607 43.2168 118.133 43.8434 117.8C44.4701 117.467 45.1901 117.3 46.0034 117.3ZM54.8966 113.16V128H53.0966V113.16H54.8966ZM62.3877 129.1C61.961 130.153 61.4543 130.893 60.8677 131.32C60.2943 131.76 59.6077 131.98 58.8077 131.98C58.3143 131.98 57.841 131.9 57.3877 131.74C56.9477 131.58 56.581 131.347 56.2877 131.04L57.0077 129.66C57.4877 130.18 58.0743 130.44 58.7677 130.44C59.3143 130.44 59.741 130.26 60.0477 129.9C60.3543 129.54 60.701 128.913 61.0877 128.02L56.6277 117.42H58.4877L62.0077 125.88L65.5077 117.42H67.2677L62.3877 129.1ZM85.078 117.48L80.198 126.28H79.338L74.458 117.6V128H72.718V114H74.238L79.798 123.94L85.298 114H86.838L86.858 128H85.098L85.078 117.48ZM93.7786 117.3C95.1653 117.3 96.2253 117.66 96.9586 118.38C97.6919 119.1 98.0586 120.16 98.0586 121.56V128H96.3786V126.28C96.0853 126.867 95.6453 127.32 95.0586 127.64C94.4853 127.947 93.7919 128.1 92.9786 128.1C91.8319 128.1 90.9319 127.82 90.2786 127.26C89.6253 126.687 89.2986 125.94 89.2986 125.02C89.2986 124.1 89.6186 123.367 90.2586 122.82C90.9119 122.26 91.9253 121.98 93.2986 121.98H96.2586C96.2586 121.527 96.2186 121.173 96.1386 120.92C96.0586 120.24 95.8053 119.727 95.3786 119.38C94.9519 119.02 94.3519 118.84 93.5786 118.84C92.9653 118.84 92.3719 118.947 91.7986 119.16C91.2253 119.373 90.7386 119.667 90.3386 120.04L89.6386 118.72C90.1586 118.267 90.7786 117.92 91.4986 117.68C92.2319 117.427 92.9919 117.3 93.7786 117.3ZM93.3786 126.78C94.0853 126.78 94.6853 126.613 95.1786 126.28C95.6719 125.933 96.0319 125.44 96.2586 124.8V123.16H93.4586C92.6186 123.16 92.0053 123.32 91.6186 123.64C91.2453 123.947 91.0586 124.373 91.0586 124.92C91.0586 125.493 91.2653 125.947 91.6786 126.28C92.0919 126.613 92.6586 126.78 93.3786 126.78ZM110.55 128H108.83V125.96C108.443 126.64 107.93 127.167 107.29 127.54C106.65 127.913 105.923 128.1 105.11 128.1C104.176 128.1 103.33 127.873 102.57 127.42C101.81 126.967 101.21 126.333 100.77 125.52C100.343 124.693 100.13 123.753 100.13 122.7C100.13 121.647 100.343 120.713 100.77 119.9C101.21 119.073 101.81 118.433 102.57 117.98C103.33 117.527 104.176 117.3 105.11 117.3C105.896 117.3 106.603 117.48 107.23 117.84C107.87 118.2 108.376 118.713 108.75 119.38V113.16H110.55V128ZM105.37 126.52C106.01 126.52 106.59 126.367 107.11 126.06C107.63 125.74 108.036 125.293 108.33 124.72C108.636 124.133 108.79 123.46 108.79 122.7C108.79 121.953 108.636 121.293 108.33 120.72C108.036 120.133 107.63 119.687 107.11 119.38C106.59 119.06 106.01 118.9 105.37 118.9C104.716 118.9 104.13 119.06 103.61 119.38C103.09 119.687 102.683 120.133 102.39 120.72C102.096 121.293 101.95 121.953 101.95 122.7C101.95 123.46 102.096 124.133 102.39 124.72C102.683 125.293 103.09 125.74 103.61 126.06C104.13 126.367 104.716 126.52 105.37 126.52ZM122.698 122.68C122.698 122.813 122.685 122.987 122.658 123.2H114.478C114.558 124.213 114.931 125.027 115.598 125.64C116.265 126.253 117.111 126.56 118.138 126.56C119.351 126.56 120.325 126.127 121.058 125.26L122.038 126.38C121.585 126.94 121.018 127.367 120.338 127.66C119.671 127.953 118.925 128.1 118.098 128.1C117.045 128.1 116.105 127.873 115.278 127.42C114.451 126.953 113.811 126.313 113.358 125.5C112.905 124.673 112.678 123.74 112.678 122.7C112.678 121.673 112.898 120.753 113.338 119.94C113.778 119.113 114.378 118.467 115.138 118C115.911 117.533 116.771 117.3 117.718 117.3C118.651 117.3 119.498 117.527 120.258 117.98C121.018 118.42 121.611 119.053 122.038 119.88C122.478 120.693 122.698 121.627 122.698 122.68ZM117.738 118.78C116.845 118.78 116.098 119.08 115.498 119.68C114.898 120.28 114.558 121.06 114.478 122.02H120.998C120.905 121.06 120.558 120.28 119.958 119.68C119.358 119.08 118.618 118.78 117.738 118.78ZM125.151 125.5C125.524 125.5 125.831 125.627 126.071 125.88C126.311 126.12 126.431 126.427 126.431 126.8C126.431 127 126.411 127.193 126.371 127.38C126.331 127.553 126.244 127.813 126.111 128.16L125.171 130.94H123.931L124.671 127.98C124.418 127.9 124.218 127.76 124.071 127.56C123.924 127.347 123.851 127.093 123.851 126.8C123.851 126.427 123.971 126.12 124.211 125.88C124.464 125.627 124.778 125.5 125.151 125.5ZM134.444 124.44L132.964 128H131.024L137.064 114H138.904L144.964 128H142.984L141.504 124.44H134.444ZM137.984 115.98L135.044 122.92H140.904L137.984 115.98ZM147.99 113.16V128H146.19V113.16H147.99ZM162.861 128H161.141L158.241 119.9L155.301 128H153.601L149.861 117.42H151.561L154.481 125.88L157.501 117.42H159.041L162.001 125.88L164.981 117.42H166.581L162.861 128ZM171.72 117.3C173.107 117.3 174.167 117.66 174.9 118.38C175.633 119.1 176 120.16 176 121.56V128H174.32V126.28C174.027 126.867 173.587 127.32 173 127.64C172.427 127.947 171.733 128.1 170.92 128.1C169.773 128.1 168.873 127.82 168.22 127.26C167.567 126.687 167.24 125.94 167.24 125.02C167.24 124.1 167.56 123.367 168.2 122.82C168.853 122.26 169.867 121.98 171.24 121.98H174.2C174.2 121.527 174.16 121.173 174.08 120.92C174 120.24 173.747 119.727 173.32 119.38C172.893 119.02 172.293 118.84 171.52 118.84C170.907 118.84 170.313 118.947 169.74 119.16C169.167 119.373 168.68 119.667 168.28 120.04L167.58 118.72C168.1 118.267 168.72 117.92 169.44 117.68C170.173 117.427 170.933 117.3 171.72 117.3ZM171.32 126.78C172.027 126.78 172.627 126.613 173.12 126.28C173.613 125.933 173.973 125.44 174.2 124.8V123.16H171.4C170.56 123.16 169.947 123.32 169.56 123.64C169.187 123.947 169 124.373 169 124.92C169 125.493 169.207 125.947 169.62 126.28C170.033 126.613 170.6 126.78 171.32 126.78ZM182.587 129.1C182.16 130.153 181.654 130.893 181.067 131.32C180.494 131.76 179.807 131.98 179.007 131.98C178.514 131.98 178.04 131.9 177.587 131.74C177.147 131.58 176.78 131.347 176.487 131.04L177.207 129.66C177.687 130.18 178.274 130.44 178.967 130.44C179.514 130.44 179.94 130.26 180.247 129.9C180.554 129.54 180.9 128.913 181.287 128.02L176.827 117.42H178.687L182.207 125.88L185.707 117.42H187.467L182.587 129.1ZM191.682 128.1C190.869 128.1 190.082 127.987 189.322 127.76C188.562 127.52 187.962 127.213 187.522 126.84L188.182 125.46C188.609 125.807 189.142 126.093 189.782 126.32C190.422 126.533 191.082 126.64 191.762 126.64C192.616 126.64 193.242 126.5 193.642 126.22C194.056 125.94 194.262 125.553 194.262 125.06C194.262 124.713 194.149 124.44 193.922 124.24C193.696 124.04 193.416 123.893 193.082 123.8C192.749 123.707 192.276 123.6 191.662 123.48C190.836 123.32 190.169 123.16 189.662 123C189.169 122.827 188.742 122.54 188.382 122.14C188.022 121.727 187.842 121.153 187.842 120.42C187.842 119.5 188.202 118.753 188.922 118.18C189.656 117.593 190.682 117.3 192.002 117.3C192.669 117.3 193.329 117.393 193.982 117.58C194.649 117.753 195.196 117.993 195.622 118.3L194.962 119.68C194.122 119.08 193.136 118.78 192.002 118.78C191.189 118.78 190.582 118.927 190.182 119.22C189.782 119.513 189.582 119.893 189.582 120.36C189.582 120.72 189.696 121.007 189.922 121.22C190.162 121.433 190.456 121.593 190.802 121.7C191.149 121.807 191.629 121.913 192.242 122.02C193.029 122.167 193.669 122.333 194.162 122.52C194.669 122.693 195.096 122.98 195.442 123.38C195.802 123.767 195.982 124.313 195.982 125.02C195.982 125.953 195.602 126.7 194.842 127.26C194.096 127.82 193.042 128.1 191.682 128.1ZM205.9 128.16C204.9 128.16 203.934 128 203 127.68C202.08 127.347 201.354 126.913 200.82 126.38L201.5 124.92C202.02 125.4 202.674 125.793 203.46 126.1C204.247 126.407 205.06 126.56 205.9 126.56C206.994 126.56 207.814 126.353 208.36 125.94C208.92 125.527 209.2 124.987 209.2 124.32C209.2 123.827 209.047 123.427 208.74 123.12C208.434 122.8 208.054 122.56 207.6 122.4C207.147 122.227 206.527 122.04 205.74 121.84C204.754 121.587 203.954 121.333 203.34 121.08C202.74 120.827 202.22 120.44 201.78 119.92C201.354 119.4 201.14 118.7 201.14 117.82C201.14 117.087 201.327 116.42 201.7 115.82C202.074 115.207 202.64 114.727 203.4 114.38C204.16 114.02 205.094 113.84 206.2 113.84C207 113.84 207.774 113.953 208.52 114.18C209.28 114.393 209.934 114.7 210.48 115.1L209.88 116.6C209.307 116.213 208.7 115.927 208.06 115.74C207.434 115.54 206.814 115.44 206.2 115.44C205.134 115.44 204.327 115.653 203.78 116.08C203.247 116.507 202.98 117.06 202.98 117.74C202.98 118.233 203.134 118.64 203.44 118.96C203.747 119.267 204.127 119.507 204.58 119.68C205.047 119.853 205.674 120.04 206.46 120.24C207.46 120.493 208.26 120.747 208.86 121C209.46 121.24 209.974 121.62 210.4 122.14C210.827 122.647 211.04 123.333 211.04 124.2C211.04 124.933 210.847 125.6 210.46 126.2C210.087 126.8 209.514 127.28 208.74 127.64C207.967 127.987 207.02 128.16 205.9 128.16ZM216.738 117.3C218.124 117.3 219.184 117.66 219.918 118.38C220.651 119.1 221.018 120.16 221.018 121.56V128H219.338V126.28C219.044 126.867 218.604 127.32 218.018 127.64C217.444 127.947 216.751 128.1 215.938 128.1C214.791 128.1 213.891 127.82 213.238 127.26C212.584 126.687 212.258 125.94 212.258 125.02C212.258 124.1 212.578 123.367 213.218 122.82C213.871 122.26 214.884 121.98 216.258 121.98H219.218C219.218 121.527 219.178 121.173 219.098 120.92C219.018 120.24 218.764 119.727 218.338 119.38C217.911 119.02 217.311 118.84 216.538 118.84C215.924 118.84 215.331 118.947 214.758 119.16C214.184 119.373 213.698 119.667 213.298 120.04L212.598 118.72C213.118 118.267 213.738 117.92 214.458 117.68C215.191 117.427 215.951 117.3 216.738 117.3ZM216.338 126.78C217.044 126.78 217.644 126.613 218.138 126.28C218.631 125.933 218.991 125.44 219.218 124.8V123.16H216.418C215.578 123.16 214.964 123.32 214.578 123.64C214.204 123.947 214.018 124.373 214.018 124.92C214.018 125.493 214.224 125.947 214.638 126.28C215.051 126.613 215.618 126.78 216.338 126.78ZM228.884 117.3C230.138 117.3 231.138 117.693 231.884 118.48C232.631 119.253 233.004 120.38 233.004 121.86V128H231.204V122.12C231.204 121.08 230.964 120.293 230.484 119.76C230.018 119.227 229.344 118.96 228.464 118.96C227.478 118.96 226.698 119.273 226.124 119.9C225.551 120.527 225.264 121.407 225.264 122.54V128H223.444V117.42H225.184V119.32C225.544 118.68 226.044 118.187 226.684 117.84C227.324 117.48 228.058 117.3 228.884 117.3ZM245.392 128H243.672V125.96C243.285 126.64 242.772 127.167 242.132 127.54C241.492 127.913 240.765 128.1 239.952 128.1C239.018 128.1 238.172 127.873 237.412 127.42C236.652 126.967 236.052 126.333 235.612 125.52C235.185 124.693 234.972 123.753 234.972 122.7C234.972 121.647 235.185 120.713 235.612 119.9C236.052 119.073 236.652 118.433 237.412 117.98C238.172 117.527 239.018 117.3 239.952 117.3C240.738 117.3 241.445 117.48 242.072 117.84C242.712 118.2 243.218 118.713 243.592 119.38V113.16H245.392V128ZM240.212 126.52C240.852 126.52 241.432 126.367 241.952 126.06C242.472 125.74 242.878 125.293 243.172 124.72C243.478 124.133 243.632 123.46 243.632 122.7C243.632 121.953 243.478 121.293 243.172 120.72C242.878 120.133 242.472 119.687 241.952 119.38C241.432 119.06 240.852 118.9 240.212 118.9C239.558 118.9 238.972 119.06 238.452 119.38C237.932 119.687 237.525 120.133 237.232 120.72C236.938 121.293 236.792 121.953 236.792 122.7C236.792 123.46 236.938 124.133 237.232 124.72C237.525 125.293 237.932 125.74 238.452 126.06C238.972 126.367 239.558 126.52 240.212 126.52ZM249.36 115.32C249 115.32 248.7 115.207 248.46 114.98C248.233 114.74 248.12 114.453 248.12 114.12C248.12 113.787 248.233 113.507 248.46 113.28C248.7 113.04 249 112.92 249.36 112.92C249.72 112.92 250.013 113.033 250.24 113.26C250.48 113.487 250.6 113.76 250.6 114.08C250.6 114.427 250.48 114.72 250.24 114.96C250.013 115.2 249.72 115.32 249.36 115.32ZM250.26 117.42V128H248.46V117.42H250.26ZM262.427 122.68C262.427 122.813 262.413 122.987 262.387 123.2H254.207C254.287 124.213 254.66 125.027 255.327 125.64C255.993 126.253 256.84 126.56 257.867 126.56C259.08 126.56 260.053 126.127 260.787 125.26L261.767 126.38C261.313 126.94 260.747 127.367 260.067 127.66C259.4 127.953 258.653 128.1 257.827 128.1C256.773 128.1 255.833 127.873 255.007 127.42C254.18 126.953 253.54 126.313 253.087 125.5C252.633 124.673 252.407 123.74 252.407 122.7C252.407 121.673 252.627 120.753 253.067 119.94C253.507 119.113 254.107 118.467 254.867 118C255.64 117.533 256.5 117.3 257.447 117.3C258.38 117.3 259.227 117.527 259.987 117.98C260.747 118.42 261.34 119.053 261.767 119.88C262.207 120.693 262.427 121.627 262.427 122.68ZM257.467 118.78C256.573 118.78 255.827 119.08 255.227 119.68C254.627 120.28 254.287 121.06 254.207 122.02H260.727C260.633 121.06 260.287 120.28 259.687 119.68C259.087 119.08 258.347 118.78 257.467 118.78ZM264.86 128.1C264.5 128.1 264.193 127.98 263.94 127.74C263.686 127.487 263.56 127.173 263.56 126.8C263.56 126.427 263.686 126.12 263.94 125.88C264.193 125.627 264.5 125.5 264.86 125.5C265.22 125.5 265.526 125.627 265.78 125.88C266.033 126.12 266.16 126.427 266.16 126.8C266.16 127.173 266.033 127.487 265.78 127.74C265.526 127.98 265.22 128.1 264.86 128.1Z" fill="white"/>
<defs>
<clipPath id="clip0_183_918">
<rect width="122" height="80" fill="white" transform="translate(74.5801 12)"/>
</clipPath>
</defs>
</svg>
