<svg width="155" height="100" viewBox="0 0 155 100" fill="none" xmlns="http://www.w3.org/2000/svg">
<g clip-path="url(#clip0_641_293)">
<path d="M16 31.2326C43.6899 30.7679 78.7265 30.1101 106.297 29.8928C116.21 29.7841 126.099 29.7721 136.006 29.7479L134.595 31.6431C134.35 30.8947 134.035 30.0376 133.69 29.2953C126.801 14.5144 113.698 15.5042 101.374 22.7589L100.433 23.29L99.6711 22.5235C90.0383 13.2349 75.7557 9.47482 63.3664 15.0878C59.1513 16.9226 55.2219 19.5178 51.6796 22.5657L51.1676 22.3303C38.2782 16.5604 21.3403 14.6895 16 31.2326ZM16 31.2326C19.3399 18.6065 29.9432 15.4861 41.5824 17.6227C45.1426 18.2745 48.5599 19.2824 51.9118 20.7128L50.9652 20.8456C65.3787 7.69436 83.2929 6.14325 98.9448 18.1659C99.8854 18.9022 100.761 19.6265 101.677 20.5197L99.9747 20.2843C103.166 18.4073 106.547 16.7657 110.191 15.7336C115.716 14.104 121.985 14.1282 127.057 17.158C132.725 20.4533 136.357 26.4345 137.976 32.7174C98.6709 32.7355 55.4303 31.9267 16.006 31.2266H16V31.2326Z" fill="#9E7D46"/>
<path d="M52.2571 20.7432C52.2571 23.2902 50.1078 25.0224 47.655 24.4068C47.6431 21.8477 49.8102 20.1397 52.2571 20.7432Z" fill="#9E7D46"/>
<path d="M100.671 20.7432C100.475 23.3626 98.1708 25.0586 95.6525 24.4068C95.837 21.7813 98.1589 20.1035 100.671 20.7432Z" fill="#9E7D46"/>
<path d="M16.5716 63.8965C56.4901 72.4065 98.1053 72.8169 138.006 63.8965C128.308 67.2763 118.258 69.6905 108.078 71.2235C78.3455 75.6113 45.1426 73.5653 16.5716 63.8965Z" fill="#9E7D46"/>
<path d="M32.9616 38.3607C35.9503 38.4512 38.4984 39.1694 39.7427 40.1592L36.9327 44.0944L36.3968 43.9736L35.4502 40.0084C35.0632 39.8273 34.0571 39.6764 33.4379 39.6764C30.1218 39.6764 28.2583 40.8775 28.2583 42.3803C28.2583 43.6115 29.205 44.541 30.5683 45.3799C34.5393 47.6613 40.3976 49.9125 39.2724 55.1634C38.9152 56.8473 37.6709 58.676 34.9204 59.515C32.4615 60.2332 29.5622 60.2633 26.7759 59.8167C24.3469 59.4848 21.7392 58.2535 20.233 56.8473L22.9895 53.0329L23.436 53.1536L24.3528 57.3241C25.0613 57.8975 26.3651 58.3441 27.3415 58.4346C31.6638 58.7364 32.7592 56.962 32.8783 55.4953C33.0271 53.9925 32.5806 53.0027 31.5745 52.4052C29.5622 51.2343 26.6568 49.6711 25.6805 49.0133C23.7872 47.8424 22.4239 46.074 22.5132 44.1185C22.6918 39.9782 26.9843 38.1736 32.9676 38.3546L32.9616 38.3607Z" fill="#294C24"/>
<path d="M44.452 57.2396C44.1543 57.813 44.3329 58.3501 45.2497 58.3501H46.0177V59.7323H40.2428V58.3501H41.0703C41.9872 58.3501 42.3146 58.1691 42.785 57.1189L49.7149 38.7168H52.8226C53.7097 38.7168 54.3944 39.5557 54.7159 40.5757L58.9488 55.3445C59.4251 56.9982 60.6039 57.2034 62.3245 56.0325L62.8008 56.7206C60.6992 59.2434 58.1808 60.1728 56.5555 60.1728C54.7218 60.1728 53.9181 58.5795 53.5966 57.469L52.1737 52.0672H46.2797L44.446 57.2275L44.452 57.2396ZM49.7208 42.8632L46.8215 50.7274H51.7391L49.7268 42.8632H49.7208Z" fill="#294C24"/>
<path d="M81.1436 59.7321H79.1016C77.9763 59.7321 76.6725 58.9837 75.4878 56.7325L67.3433 42.8026L66.3372 57.0946C66.3074 57.8732 66.3669 58.5371 67.3135 58.5371H68.2899V59.7381H62.6341V58.5371H63.5509C64.3785 58.5371 64.6166 58.1448 64.7059 57.0946L65.8311 41.0342C65.8906 40.4609 65.4739 40.1048 64.9738 40.1048H63.9974V38.7227H71.3381L79.81 53.4914L80.6971 41.2455C80.7566 40.4669 80.4292 40.0746 79.81 40.0746H78.536V38.7227H84.6384V40.0746H83.4834C82.7451 40.0746 82.5368 40.4669 82.4772 41.2455L81.1436 59.7381V59.7321Z" fill="#294C24"/>
<path d="M88.1034 40.8775C88.1629 40.28 87.8652 40.0386 87.3651 40.0386H86.0315V38.7168H96.8967C103.261 38.7168 105.72 42.5614 105.72 46.9129C105.72 50.667 105.482 55.1393 102.821 57.813C101.106 59.5271 96.5753 60.2755 94.2653 59.8832C93.4675 59.7624 92.634 59.34 91.8065 58.8028C91.2409 59.521 90.4431 59.7323 89.6453 59.7323H86.6864L88.1093 40.8775H88.1034ZM93.9081 40.0084L92.6935 56.5516C92.634 56.9439 92.5447 57.2698 92.4554 57.5716C92.9019 57.8733 93.4615 58.1389 94.2296 58.4407C96.4205 58.9537 97.8136 57.6621 98.7304 55.3203C99.6473 53.0088 99.7366 49.7074 99.7366 46.1947C99.7366 41.4509 97.8731 40.0084 95.5036 40.0084H93.9021H93.9081Z" fill="#294C24"/>
<path d="M110.846 40.8473C110.905 40.28 110.667 40.0989 110.256 40.0989H109.042V38.7168H118.752V40.0989H117.567C117.27 40.0989 117.091 40.28 117.032 40.8473L115.758 57.5655C115.698 58.1329 115.817 58.3441 116.347 58.3441H117.502V59.7262H107.792V58.3441H108.976C109.334 58.3441 109.512 58.163 109.566 57.5957L110.84 40.8473H110.846Z" fill="#294C24"/>
<path d="M122.664 40.787C122.723 40.1894 122.366 40.0386 122.074 40.0386H120.592V38.7168H138.006V40.1593H128.766L128.147 47.9933H136.351V49.4056H128.028L127.349 58.2596H137.446V59.7323H123.116C121.991 59.7323 121.282 58.8632 121.372 57.9639L122.676 40.793L122.664 40.787Z" fill="#294C24"/>
<path d="M41.761 86.4212C41.4991 86.2401 41.3026 86.0289 41.1716 85.7995C41.3502 85.4857 41.4395 85.3348 41.6122 85.0209C41.7372 85.2322 41.9039 85.4193 42.1182 85.5762C42.3326 85.7331 42.5529 85.8357 42.791 85.884C43.0708 85.9383 43.2911 85.9202 43.4518 85.8176C43.6126 85.7211 43.7138 85.5641 43.7555 85.3589C43.7852 85.202 43.7674 85.0692 43.7078 84.9546C43.6483 84.8459 43.565 84.7493 43.4578 84.6709C43.3506 84.5924 43.1958 84.4959 42.9934 84.3751C42.7196 84.2182 42.4993 84.0734 42.3326 83.9346C42.1659 83.7957 42.0408 83.6026 41.9515 83.3612C41.8622 83.1198 41.8563 82.818 41.9277 82.4498C41.9932 82.142 42.1063 81.8704 42.273 81.6411C42.4397 81.4117 42.66 81.2488 42.922 81.1462C43.1839 81.0436 43.4876 81.0255 43.821 81.0919C44.0651 81.1401 44.2853 81.2307 44.4997 81.3635C44.714 81.4962 44.8866 81.6532 45.0295 81.8463C44.8688 82.1662 44.7914 82.3291 44.6306 82.649C44.4878 82.4679 44.333 82.3231 44.1663 82.2145C43.9996 82.1058 43.8269 82.0334 43.6543 81.9972C43.3864 81.9429 43.172 81.973 43.0172 82.0756C42.8624 82.1843 42.7612 82.3412 42.7196 82.5524C42.6898 82.7033 42.7017 82.8361 42.7612 82.9508C42.8208 83.0655 42.9041 83.162 43.0113 83.2405C43.1184 83.3189 43.2673 83.4155 43.4637 83.5241C43.7436 83.6811 43.9638 83.832 44.1246 83.9647C44.2853 84.0975 44.4163 84.2846 44.5056 84.526C44.6009 84.7675 44.6128 85.0632 44.5473 85.4253C44.4937 85.7331 44.3806 85.9987 44.2139 86.228C44.0472 86.4574 43.8269 86.6264 43.553 86.729C43.2792 86.8316 42.9636 86.8497 42.6124 86.7773C42.3088 86.7169 42.023 86.5962 41.761 86.4151V86.4212Z" fill="#231F20"/>
<path d="M47.2442 86.2583C47.0061 86.7351 46.887 86.9765 46.6489 87.4533C46.3214 87.399 46.1607 87.3688 45.8332 87.3085C46.9287 85.2142 47.4704 84.17 48.5183 82.0576C48.8219 82.1059 48.9767 82.1361 49.2803 82.1844C49.6197 84.5201 49.7983 85.691 50.1793 88.0267C49.8459 87.9784 49.6792 87.9482 49.3458 87.8999C49.2684 87.3688 49.2327 87.1033 49.1613 86.5782C48.3932 86.4575 48.0122 86.3911 47.2442 86.2583ZM48.7266 83.2285C48.298 84.1157 48.0777 84.5623 47.6431 85.4435C48.2027 85.5401 48.4825 85.5884 49.0422 85.6789C48.9112 84.7011 48.8457 84.2123 48.7266 83.2285Z" fill="#231F20"/>
<path d="M55.6685 88.7751C55.4065 88.7449 55.2755 88.7268 55.0076 88.6966C54.3349 87.1214 54.0015 86.3307 53.3645 84.7434C53.168 86.216 53.0727 86.9524 52.8822 88.419C52.5667 88.3767 52.4059 88.3526 52.0904 88.3103C52.394 86.0772 52.5488 84.9607 52.8524 82.7275C53.1085 82.7638 53.2335 82.7819 53.4895 82.8181C54.1146 84.3994 54.442 85.184 55.1029 86.7592C55.2815 85.2866 55.3648 84.5563 55.5434 83.0836C55.8471 83.1198 56.0019 83.1379 56.3115 83.1742C56.0555 85.4133 55.9245 86.5299 55.6685 88.769V88.7751Z" fill="#231F20"/>
<path d="M61.4672 84.0551C61.7709 84.3146 61.9911 84.6647 62.14 85.1052C62.2888 85.5458 62.3364 86.0407 62.2948 86.602C62.2531 87.1573 62.1221 87.6401 61.9078 88.0505C61.6935 88.461 61.4077 88.7688 61.0564 88.974C60.7052 89.1792 60.3182 89.2637 59.8836 89.2214C59.1751 89.155 58.8239 89.1188 58.1213 89.0464C58.3476 86.8072 58.4607 85.6846 58.6869 83.4395C59.3716 83.5119 59.7109 83.5421 60.3956 83.6084C60.8123 83.6447 61.1696 83.7955 61.4732 84.0551H61.4672ZM60.6873 88.1169C60.9135 87.9781 61.0981 87.7729 61.235 87.5013C61.372 87.2297 61.4553 86.9038 61.491 86.5296C61.5208 86.1494 61.491 85.8114 61.4017 85.5217C61.3124 85.2259 61.1696 84.9966 60.9731 84.8276C60.7766 84.6586 60.5444 84.556 60.2646 84.5319C59.9074 84.4957 59.7228 84.4836 59.3656 84.4474C59.2227 85.9442 59.1513 86.6986 59.0084 88.1954C59.3775 88.2316 59.5621 88.2497 59.9312 88.2859C60.211 88.3101 60.467 88.2557 60.6933 88.123L60.6873 88.1169Z" fill="#231F20"/>
<path d="M68.7484 89.8011C68.4031 89.789 68.2305 89.783 67.8852 89.7649C67.5756 88.1293 67.4267 87.3084 67.135 85.6668C66.6766 87.2662 66.4444 88.0689 65.9622 89.6683C65.6169 89.6502 65.4442 89.6381 65.0989 89.62C64.7 87.3386 64.5154 86.1979 64.1523 83.9165C64.4738 83.9406 64.6345 83.9467 64.962 83.9708C65.2299 85.6607 65.3728 86.4997 65.6585 88.1896C66.1527 86.548 66.3908 85.7271 66.8671 84.0795C67.1529 84.0915 67.3017 84.1036 67.5875 84.1157C67.8911 85.8116 68.0459 86.6626 68.3674 88.3526C68.8258 86.6868 69.052 85.8599 69.4926 84.1941C69.7903 84.2062 69.9391 84.2122 70.2368 84.2183C69.6593 86.4574 69.3557 87.574 68.7425 89.8011H68.7484Z" fill="#231F20"/>
<path d="M73.0647 84.2787C73.035 86.5299 73.0231 87.6585 72.9933 89.9097C72.6718 89.9097 72.5111 89.9037 72.1836 89.8977C72.2253 87.6465 72.2432 86.5178 72.2848 84.2666C72.5944 84.2666 72.7552 84.2726 73.0647 84.2787Z" fill="#231F20"/>
<path d="M76.2439 89.6378C75.9165 89.3904 75.6605 89.0464 75.47 88.5997C75.2854 88.1591 75.1902 87.6582 75.1902 87.109C75.1902 86.5537 75.2795 86.0588 75.464 85.6182C75.6426 85.1776 75.8927 84.8276 76.2142 84.5801C76.5297 84.3266 76.8869 84.1999 77.2798 84.1938C77.6013 84.1938 77.899 84.2663 78.1669 84.4232C78.4348 84.5801 78.667 84.8155 78.8575 85.1233C78.6611 85.4009 78.5658 85.5337 78.3693 85.8114C78.0836 85.3708 77.7383 85.1535 77.3394 85.1595C77.0834 85.1595 76.8512 85.2501 76.6488 85.419C76.4464 85.588 76.2856 85.8174 76.1725 86.1131C76.0594 86.4089 75.9998 86.7408 76.0058 87.115C76.0058 87.4832 76.0653 87.8151 76.1844 88.1109C76.3035 88.4006 76.4702 88.6299 76.6785 88.7929C76.8869 88.9558 77.1251 89.0403 77.393 89.0343C77.8097 89.0343 78.155 88.7989 78.4229 88.3523C78.6313 88.6178 78.7385 88.7506 78.9528 89.0162C78.7742 89.33 78.548 89.5775 78.2741 89.7465C78.0002 89.9155 77.6966 90.006 77.3572 90.012C76.9524 90.012 76.5833 89.8974 76.2558 89.6499L76.2439 89.6378Z" fill="#231F20"/>
<path d="M84.6682 89.6501C84.3467 89.6682 84.1859 89.6803 83.8644 89.6924C83.8168 88.7388 83.793 88.268 83.7454 87.3144C82.9655 87.3567 82.5725 87.3748 81.7926 87.4049C81.8283 88.3585 81.8462 88.8353 81.8879 89.7829C81.5664 89.795 81.4056 89.801 81.0841 89.8131C81.0067 87.5619 80.9651 86.4332 80.8877 84.182C81.1972 84.1699 81.358 84.1639 81.6676 84.1518C81.7033 85.0692 81.7212 85.5279 81.7569 86.4453C82.5368 86.4151 82.9238 86.397 83.6977 86.3548C83.6501 85.4374 83.6263 84.9787 83.5787 84.0613C83.8883 84.0432 84.049 84.0371 84.3586 84.019C84.4836 86.2703 84.5491 87.3929 84.6741 89.6441L84.6682 89.6501Z" fill="#231F20"/>
<path d="M90.6932 88.9137C90.3419 88.6965 90.0561 88.3766 89.8358 87.9481C89.6156 87.5256 89.4786 87.0367 89.431 86.4875C89.3834 85.9383 89.431 85.4313 89.5739 84.9786C89.7168 84.5199 89.9371 84.1518 90.2347 83.8741C90.5324 83.5965 90.8718 83.4396 91.2647 83.3973C91.5862 83.3672 91.8898 83.4154 92.1696 83.5482C92.4495 83.681 92.6995 83.8922 92.9138 84.1819C92.7412 84.4716 92.6578 84.6165 92.4792 84.9062C92.1577 84.4958 91.7946 84.3087 91.3957 84.3449C91.1397 84.369 90.9194 84.4777 90.7289 84.6587C90.5384 84.8458 90.4014 85.0873 90.3121 85.389C90.2228 85.6908 90.1931 86.0288 90.2288 86.403C90.2645 86.7712 90.3479 87.0971 90.4907 87.3747C90.6336 87.6523 90.8182 87.8696 91.0444 88.0145C91.2707 88.1593 91.5147 88.2197 91.7767 88.1955C92.1875 88.1533 92.5149 87.8937 92.7471 87.423C92.9793 87.6704 93.0984 87.7911 93.3306 88.0386C93.1817 88.3706 92.9793 88.6301 92.7174 88.8232C92.4554 89.0163 92.1577 89.131 91.8243 89.1672C91.4195 89.2095 91.0444 89.1189 90.6932 88.9017V88.9137Z" fill="#231F20"/>
<path d="M96.0395 87.3201C95.9502 87.8452 95.9026 88.1108 95.8133 88.6359C95.4858 88.6781 95.3191 88.6962 94.9917 88.7385C95.4441 86.4148 95.6585 85.25 96.0633 82.9263C96.3669 82.8841 96.5217 82.866 96.8254 82.8237C97.8136 84.9603 98.3197 86.0286 99.3556 88.153C99.0222 88.2013 98.8555 88.2255 98.5162 88.2737C98.2959 87.7909 98.1828 87.5435 97.9625 87.0606C97.1945 87.1693 96.8075 87.2175 96.0395 87.3201ZM96.5932 83.9886C96.4384 84.9663 96.355 85.4492 96.1883 86.4269C96.7539 86.3545 97.0337 86.3183 97.5934 86.2398C97.1885 85.3405 96.9861 84.8879 96.5932 83.9886Z" fill="#231F20"/>
<path d="M101.558 84.7253C102.303 84.6046 102.672 84.5382 103.416 84.4115C103.475 84.7676 103.505 84.9486 103.571 85.3047C102.827 85.4375 102.451 85.4979 101.707 85.6246C101.844 86.4696 101.91 86.8921 102.047 87.737C101.731 87.7913 101.57 87.8155 101.255 87.8638C100.909 85.6367 100.737 84.5262 100.392 82.2991C101.523 82.118 102.094 82.0214 103.225 81.8223C103.285 82.1784 103.321 82.3594 103.38 82.7155C102.553 82.8604 102.136 82.9328 101.302 83.0716C101.41 83.7355 101.463 84.0614 101.564 84.7253H101.558Z" fill="#231F20"/>
<path d="M109.316 86.3789C108.119 86.6323 107.524 86.747 106.321 86.9764C105.91 84.7613 105.702 83.6569 105.291 81.4418C106.422 81.2246 106.982 81.1159 108.113 80.8745C108.185 81.2306 108.22 81.4117 108.292 81.7678C107.464 81.9428 107.054 82.0273 106.226 82.1842C106.333 82.7455 106.387 83.0231 106.494 83.5844C107.232 83.4396 107.601 83.3672 108.34 83.2102C108.411 83.5543 108.447 83.7293 108.512 84.0793C107.768 84.2363 107.399 84.3087 106.655 84.4535C106.768 85.039 106.821 85.3347 106.934 85.9262C107.81 85.7572 108.25 85.6667 109.125 85.4796C109.197 85.8417 109.233 86.0167 109.31 86.3789H109.316Z" fill="#231F20"/>
</g>
<defs>
<clipPath id="clip0_641_293">
<rect width="122" height="80" fill="white" transform="translate(16 10)"/>
</clipPath>
</defs>
</svg>
